# xmcd CD database file
#
# Track frame offsets:
#	150
#	22478
#	40870
#	56588
#	73410
#	90723
#	109280
#	121938
#	143320
#	158038
#	179968
#	192978
#	207108
#	233033
#	253035
#	271305
#	288920
#
# Disc length: 4035 seconds
#
# Revision: 0
# Processed by: cddbd v1.5.2PL0 Copyright (c) Steve Scherf et al.
# Submitted via: CdAid (MTCDDB.DLL V2003.12.21)
#
DISCID=020fc111
DTITLE=Various Artist - Promocional 
DYEAR=1995
DGENRE=Country
TTITLE0=Madonna - Takebow (Indasolumix)
TTITLE1=Seal - Newborn Friend
TTITLE2=Tchello - De Bar em Bar
TTITLE3=Green Day - Welcome To Paradise
TTITLE4=Paulo Miklos - Abandono
TTITLE5=Tom Jones - If I Onlu New
TTITLE6=Kid Abelha - Canário do Reino
TTITLE7=Tevin Campbell - I'm Ready
TTITLE8=Bruno Nunes - A Gente Sofre
TTITLE9=Dr. Dre and Ice Cube - Natural Born Killaz
TTITLE10=Mundo Livre S/A - Livre Iniciativa
TTITLE11=Moby - Feeling So Real
TTITLE12=All-4-One - Oh Girl
TTITLE13=Blackstreet - Bootcall
TTITLE14=Erasure - I Love Saturday
TTITLE15=Helmet - Wilma's Rainbow
TTITLE16=Stereolab - Ping Pong
EXTD=ID3G:   2 YEAR: 1995
EXTT0=
EXTT1=
EXTT2=
EXTT3=
EXTT4=
EXTT5=
EXTT6=
EXTT7=
EXTT8=
EXTT9=
EXTT10=
EXTT11=
EXTT12=
EXTT13=
EXTT14=
EXTT15=
EXTT16=
PLAYORDER=
